<mxfile host="app.diagrams.net" modified="2021-09-12T14:01:51.098Z" agent="5.0 (Windows NT 10.0; Win64; x64) AppleWebKit/537.36 (KHTML, like Gecko) Chrome/94.0.4606.31 Safari/537.36 Edg/94.0.992.14" etag="mplx5P_RI0V0OCcVCCrc" version="15.1.4" type="github" pages="3">
  <diagram id="sT4PrIs_ewkXOejij0hs" name="Gate 0-3">
    <mxGraphModel dx="974" dy="478" grid="1" gridSize="10" guides="1" tooltips="1" connect="1" arrows="1" fold="1" page="1" pageScale="1" pageWidth="850" pageHeight="1100" math="0" shadow="0">
      <root>
        <mxCell id="0" />
        <mxCell id="1" parent="0" />
        <mxCell id="AVb4YJZ0GUQx_zkOTaE5-1" value="" style="fillColor=none;strokeColor=none;pointerEvents=0;fontStyle=0;html=1;whiteSpace=wrap;container=1;collapsible=0;childLayout=stackLayout;resizeParent=1;dropTarget=0;horizontalStack=0;whiteSpace=wrap;fontSize=13;spacing=0;strokeOpacity=100;rounded=1;absoluteArcSize=1;arcSize=9;horizontal=0;strokeWidth=2.3;" parent="1" vertex="1">
          <mxGeometry x="150" y="60" width="1133.75" height="1050" isRotated="1" as="geometry" />
        </mxCell>
        <mxCell id="AVb4YJZ0GUQx_zkOTaE5-2" value="Product Owner" style="swimlane;html=1;whiteSpace=wrap;container=1;connectable=0;collapsible=0;fontStyle=0;startSize=45;dropTarget=0;rounded=0;horizontal=0;whiteSpace=wrap;fontSize=13;spacing=0;strokeColor=#5e5e5e;strokeOpacity=100;strokeWidth=2.3;fontSize=16.7;fontColor=#333333;" parent="AVb4YJZ0GUQx_zkOTaE5-1" vertex="1">
          <mxGeometry width="1133.75" height="150" as="geometry" />
        </mxCell>
        <mxCell id="AVb4YJZ0GUQx_zkOTaE5-3" value="Business Analyst " style="swimlane;html=1;whiteSpace=wrap;container=1;connectable=0;collapsible=0;fontStyle=0;startSize=45;dropTarget=0;rounded=0;horizontal=0;whiteSpace=wrap;fontSize=13;spacing=0;strokeColor=#5e5e5e;strokeOpacity=100;strokeWidth=2.3;fontSize=16.7;fontColor=#333333;" parent="AVb4YJZ0GUQx_zkOTaE5-1" vertex="1">
          <mxGeometry y="150" width="1133.75" height="150" as="geometry" />
        </mxCell>
        <mxCell id="AVb4YJZ0GUQx_zkOTaE5-4" value="Business Operations" style="swimlane;html=1;whiteSpace=wrap;container=1;connectable=0;collapsible=0;fontStyle=0;startSize=45;dropTarget=0;rounded=0;horizontal=0;whiteSpace=wrap;fontSize=13;spacing=0;strokeColor=#5e5e5e;strokeOpacity=100;strokeWidth=2.3;fontSize=16.7;fontColor=#333333;" parent="AVb4YJZ0GUQx_zkOTaE5-1" vertex="1">
          <mxGeometry y="300" width="1133.75" height="150" as="geometry" />
        </mxCell>
        <mxCell id="AVb4YJZ0GUQx_zkOTaE5-5" value="Privacy Analyst" style="swimlane;html=1;whiteSpace=wrap;container=1;connectable=0;collapsible=0;fontStyle=0;startSize=45;dropTarget=0;rounded=0;horizontal=0;whiteSpace=wrap;fontSize=13;spacing=0;strokeColor=#5e5e5e;strokeOpacity=100;strokeWidth=2.3;fontSize=16.7;fontColor=#333333;" parent="AVb4YJZ0GUQx_zkOTaE5-1" vertex="1">
          <mxGeometry y="450" width="1133.75" height="150" as="geometry" />
        </mxCell>
        <mxCell id="AVb4YJZ0GUQx_zkOTaE5-6" value="Systems Analyst" style="swimlane;html=1;whiteSpace=wrap;container=1;connectable=0;collapsible=0;fontStyle=0;startSize=45;dropTarget=0;rounded=0;horizontal=0;whiteSpace=wrap;fontSize=13;spacing=0;strokeColor=#5e5e5e;strokeOpacity=100;strokeWidth=2.3;fontSize=16.7;fontColor=#333333;" parent="AVb4YJZ0GUQx_zkOTaE5-1" vertex="1">
          <mxGeometry y="600" width="1133.75" height="150" as="geometry" />
        </mxCell>
        <mxCell id="AVb4YJZ0GUQx_zkOTaE5-7" value="Security Atchitect" style="swimlane;html=1;whiteSpace=wrap;container=1;connectable=0;collapsible=0;fontStyle=0;startSize=45;dropTarget=0;rounded=0;horizontal=0;whiteSpace=wrap;fontSize=13;spacing=0;strokeColor=#5e5e5e;strokeOpacity=100;strokeWidth=2.3;fontSize=16.7;fontColor=#333333;" parent="AVb4YJZ0GUQx_zkOTaE5-1" vertex="1">
          <mxGeometry y="750" width="1133.75" height="150" as="geometry" />
        </mxCell>
        <mxCell id="chuD_WC5-JzSlJ0CMf8W-2" value="Infrastructure Architect" style="swimlane;html=1;whiteSpace=wrap;container=1;connectable=0;collapsible=0;fontStyle=0;startSize=45;dropTarget=0;rounded=0;horizontal=0;whiteSpace=wrap;fontSize=13;spacing=0;strokeColor=#5e5e5e;strokeOpacity=100;strokeWidth=2.3;fontSize=16.7;fontColor=#333333;" parent="AVb4YJZ0GUQx_zkOTaE5-1" vertex="1">
          <mxGeometry y="900" width="1133.75" height="150" as="geometry" />
        </mxCell>
        <UserObject label="Product Definition" lucidchartObjectId="QqO1swW5jFUG" id="AVb4YJZ0GUQx_zkOTaE5-8">
          <mxCell style="html=1;overflow=block;blockSpacing=1;whiteSpace=wrap;;whiteSpace=wrap;fontSize=16.7;fontColor=#333333;spacing=9;strokeColor=#5e5e5e;strokeOpacity=100;rounded=1;absoluteArcSize=1;arcSize=9;strokeWidth=2.3;" parent="1" vertex="1">
            <mxGeometry x="210" y="90" width="120" height="90" as="geometry" />
          </mxCell>
        </UserObject>
        <UserObject label="" lucidchartObjectId="tLO1TNfQc3RX" id="AVb4YJZ0GUQx_zkOTaE5-9">
          <mxCell style="html=1;jettySize=18;whiteSpace=wrap;fontSize=13;strokeColor=#5E5E5E;strokeWidth=1.5;rounded=1;arcSize=12;edgeStyle=orthogonalEdgeStyle;startArrow=none;;endArrow=block;endFill=1;;exitX=0.5;exitY=1.013;exitPerimeter=0;entryX=0.5;entryY=-0.012;entryPerimeter=0;" parent="1" source="AVb4YJZ0GUQx_zkOTaE5-8" target="AVb4YJZ0GUQx_zkOTaE5-10" edge="1">
            <mxGeometry width="100" height="100" relative="1" as="geometry">
              <Array as="points" />
            </mxGeometry>
          </mxCell>
        </UserObject>
        <UserObject label="Business Requirements" lucidchartObjectId="6LO1BT5s9UvW" id="AVb4YJZ0GUQx_zkOTaE5-10">
          <mxCell style="html=1;overflow=block;blockSpacing=1;whiteSpace=wrap;;whiteSpace=wrap;fontSize=16.7;fontColor=#333333;spacing=9;strokeColor=#5e5e5e;strokeOpacity=100;rounded=1;absoluteArcSize=1;arcSize=9;strokeWidth=2.3;" parent="1" vertex="1">
            <mxGeometry x="210" y="240" width="120" height="90" as="geometry" />
          </mxCell>
        </UserObject>
        <UserObject label="Identify Impacted Processes" lucidchartObjectId="PRO1Q9muirlC" id="AVb4YJZ0GUQx_zkOTaE5-11">
          <mxCell style="html=1;overflow=block;blockSpacing=1;whiteSpace=wrap;;whiteSpace=wrap;fontSize=16.7;fontColor=#333333;spacing=9;strokeColor=#5e5e5e;strokeOpacity=100;rounded=1;absoluteArcSize=1;arcSize=9;strokeWidth=2.3;" parent="1" vertex="1">
            <mxGeometry x="210" y="390" width="120" height="90" as="geometry" />
          </mxCell>
        </UserObject>
        <UserObject label="" lucidchartObjectId="eSO1BGS46mkk" id="AVb4YJZ0GUQx_zkOTaE5-12">
          <mxCell style="html=1;jettySize=18;whiteSpace=wrap;fontSize=13;strokeColor=#5E5E5E;strokeWidth=1.5;rounded=1;arcSize=12;edgeStyle=orthogonalEdgeStyle;startArrow=none;;endArrow=block;endFill=1;;exitX=0.5;exitY=1.013;exitPerimeter=0;entryX=0.5;entryY=-0.012;entryPerimeter=0;" parent="1" source="AVb4YJZ0GUQx_zkOTaE5-10" target="AVb4YJZ0GUQx_zkOTaE5-11" edge="1">
            <mxGeometry width="100" height="100" relative="1" as="geometry">
              <Array as="points" />
            </mxGeometry>
          </mxCell>
        </UserObject>
        <UserObject label="" lucidchartObjectId="OTO1cXqyFbqM" id="AVb4YJZ0GUQx_zkOTaE5-13">
          <mxCell style="html=1;jettySize=18;whiteSpace=wrap;fontSize=13;strokeColor=#5E5E5E;strokeWidth=1.5;rounded=1;arcSize=12;edgeStyle=orthogonalEdgeStyle;startArrow=none;;endArrow=block;endFill=1;;exitX=1.009;exitY=0.5;exitPerimeter=0;entryX=-0.007;entryY=0.5;entryPerimeter=0;" parent="1" source="AVb4YJZ0GUQx_zkOTaE5-11" target="AVb4YJZ0GUQx_zkOTaE5-14" edge="1">
            <mxGeometry width="100" height="100" relative="1" as="geometry">
              <Array as="points">
                <mxPoint x="350" y="435" />
                <mxPoint x="350" y="285" />
              </Array>
            </mxGeometry>
          </mxCell>
        </UserObject>
        <UserObject label="Create New Process or Update Existing Process Flow" lucidchartObjectId="SVO1N8~VqLaf" id="AVb4YJZ0GUQx_zkOTaE5-14">
          <mxCell style="html=1;overflow=block;blockSpacing=1;whiteSpace=wrap;;whiteSpace=wrap;fontSize=16.7;fontColor=#333333;spacing=9;strokeColor=#5e5e5e;strokeOpacity=100;rounded=1;absoluteArcSize=1;arcSize=9;strokeWidth=2.3;" parent="1" vertex="1">
            <mxGeometry x="375" y="240" width="165" height="90" as="geometry" />
          </mxCell>
        </UserObject>
        <UserObject label="Review &amp;  Approve Process Flow" lucidchartObjectId="qYO1r6Hmecr4" id="AVb4YJZ0GUQx_zkOTaE5-15">
          <mxCell style="html=1;overflow=block;blockSpacing=1;whiteSpace=wrap;;whiteSpace=wrap;fontSize=16.7;fontColor=#333333;spacing=9;strokeColor=#5e5e5e;strokeOpacity=100;rounded=1;absoluteArcSize=1;arcSize=9;strokeWidth=2.3;" parent="1" vertex="1">
            <mxGeometry x="398" y="390" width="120" height="90" as="geometry" />
          </mxCell>
        </UserObject>
        <mxCell id="MOcHHpE1gg_xAxi6Tij9-3" value="" style="edgeStyle=orthogonalEdgeStyle;rounded=1;orthogonalLoop=1;jettySize=auto;html=1;fontSize=2;endArrow=block;endFill=1;strokeColor=#5E5E5E;strokeWidth=1.5;" parent="1" source="AVb4YJZ0GUQx_zkOTaE5-16" target="AVb4YJZ0GUQx_zkOTaE5-26" edge="1">
          <mxGeometry relative="1" as="geometry" />
        </mxCell>
        <UserObject label="Identify Systems Impacts &amp; Technical Requirements" lucidchartObjectId="P-O16Mr2nV3Q" id="AVb4YJZ0GUQx_zkOTaE5-16">
          <mxCell style="html=1;overflow=block;blockSpacing=1;whiteSpace=wrap;;whiteSpace=wrap;fontSize=16.7;fontColor=#333333;spacing=9;strokeColor=#5e5e5e;strokeOpacity=100;rounded=1;absoluteArcSize=1;arcSize=9;strokeWidth=2.3;" parent="1" vertex="1">
            <mxGeometry x="210" y="675" width="135" height="118" as="geometry" />
          </mxCell>
        </UserObject>
        <UserObject label="Review &amp;  Approve Process Flow" lucidchartObjectId="U_O14SjE6L0z" id="AVb4YJZ0GUQx_zkOTaE5-17">
          <mxCell style="html=1;overflow=block;blockSpacing=1;whiteSpace=wrap;;whiteSpace=wrap;fontSize=16.7;fontColor=#333333;spacing=9;strokeColor=#5e5e5e;strokeOpacity=100;rounded=1;absoluteArcSize=1;arcSize=9;strokeWidth=2.3;" parent="1" vertex="1">
            <mxGeometry x="555" y="90" width="120" height="90" as="geometry" />
          </mxCell>
        </UserObject>
        <UserObject label="" lucidchartObjectId="h.O160byAaJy" id="AVb4YJZ0GUQx_zkOTaE5-18">
          <mxCell style="html=1;jettySize=18;whiteSpace=wrap;fontSize=13;strokeColor=#5E5E5E;strokeWidth=1.5;rounded=1;arcSize=12;edgeStyle=orthogonalEdgeStyle;startArrow=none;;endArrow=block;endFill=1;;exitX=1.009;exitY=0.5;exitPerimeter=0;entryX=0.5;entryY=1.013;entryPerimeter=0;" parent="1" source="AVb4YJZ0GUQx_zkOTaE5-15" target="AVb4YJZ0GUQx_zkOTaE5-17" edge="1">
            <mxGeometry width="100" height="100" relative="1" as="geometry">
              <Array as="points" />
            </mxGeometry>
          </mxCell>
        </UserObject>
        <UserObject label="Update Design Document" lucidchartObjectId="FaP1SaTPmPoL" id="AVb4YJZ0GUQx_zkOTaE5-19">
          <mxCell style="html=1;overflow=block;blockSpacing=1;whiteSpace=wrap;;whiteSpace=wrap;fontSize=16.7;fontColor=#333333;spacing=9;strokeColor=#5e5e5e;strokeOpacity=100;rounded=1;absoluteArcSize=1;arcSize=9;strokeWidth=2.3;" parent="1" vertex="1">
            <mxGeometry x="1050" y="689" width="120" height="90" as="geometry" />
          </mxCell>
        </UserObject>
        <UserObject label="" lucidchartObjectId="ubP1QJVVEQTj" id="AVb4YJZ0GUQx_zkOTaE5-20">
          <mxCell style="html=1;jettySize=18;whiteSpace=wrap;fontSize=13;strokeColor=#5E5E5E;strokeWidth=1.5;rounded=1;arcSize=12;edgeStyle=orthogonalEdgeStyle;startArrow=none;;endArrow=block;endFill=1;;exitX=1.009;exitY=0.5;exitPerimeter=0;entryX=-0.009;entryY=0.5;entryPerimeter=0;" parent="1" source="AVb4YJZ0GUQx_zkOTaE5-17" target="AVb4YJZ0GUQx_zkOTaE5-27" edge="1">
            <mxGeometry width="100" height="100" relative="1" as="geometry">
              <Array as="points" />
            </mxGeometry>
          </mxCell>
        </UserObject>
        <UserObject label="" lucidchartObjectId="WVP1Hlb4sf8I" id="AVb4YJZ0GUQx_zkOTaE5-22">
          <mxCell style="html=1;jettySize=18;whiteSpace=wrap;fontSize=13;strokeColor=#5E5E5E;strokeWidth=1.5;rounded=1;arcSize=12;edgeStyle=orthogonalEdgeStyle;startArrow=none;;endArrow=block;endFill=1;;exitX=1.009;exitY=0.5;exitPerimeter=0;entryX=-0.009;entryY=0.5;entryPerimeter=0;" parent="1" source="AVb4YJZ0GUQx_zkOTaE5-47" target="AVb4YJZ0GUQx_zkOTaE5-48" edge="1">
            <mxGeometry width="100" height="100" relative="1" as="geometry">
              <Array as="points" />
            </mxGeometry>
          </mxCell>
        </UserObject>
        <UserObject label="" lucidchartObjectId="jXP1vvDLmq-S" id="AVb4YJZ0GUQx_zkOTaE5-23">
          <mxCell style="html=1;jettySize=18;whiteSpace=wrap;fontSize=13;strokeColor=#5E5E5E;strokeWidth=1.5;rounded=1;arcSize=12;edgeStyle=orthogonalEdgeStyle;startArrow=none;;endArrow=block;endFill=1;;exitX=1.009;exitY=0.5;exitPerimeter=0;entryX=-0.009;entryY=0.5;entryPerimeter=0;" parent="1" source="AVb4YJZ0GUQx_zkOTaE5-48" target="AVb4YJZ0GUQx_zkOTaE5-19" edge="1">
            <mxGeometry width="100" height="100" relative="1" as="geometry">
              <Array as="points" />
            </mxGeometry>
          </mxCell>
        </UserObject>
        <UserObject label="" lucidchartObjectId="ogP1A01Hh2tP" id="AVb4YJZ0GUQx_zkOTaE5-24">
          <mxCell style="html=1;jettySize=18;whiteSpace=wrap;fontSize=13;strokeColor=#5E5E5E;strokeWidth=1.5;rounded=1;arcSize=12;edgeStyle=orthogonalEdgeStyle;startArrow=none;;endArrow=block;endFill=1;;exitX=1.008;exitY=0.5;exitPerimeter=0;entryX=-0.009;entryY=0.5;entryPerimeter=0;" parent="1" source="AVb4YJZ0GUQx_zkOTaE5-26" target="AVb4YJZ0GUQx_zkOTaE5-46" edge="1">
            <mxGeometry width="100" height="100" relative="1" as="geometry">
              <Array as="points" />
            </mxGeometry>
          </mxCell>
        </UserObject>
        <UserObject label="" lucidchartObjectId="sUP1J9cHoL~d" id="AVb4YJZ0GUQx_zkOTaE5-25">
          <mxCell style="html=1;jettySize=18;whiteSpace=wrap;fontSize=13;strokeColor=#5E5E5E;strokeWidth=1.5;rounded=1;arcSize=12;edgeStyle=orthogonalEdgeStyle;startArrow=none;;endArrow=block;endFill=1;;exitX=1.009;exitY=0.5;exitPerimeter=0;entryX=-0.009;entryY=0.5;entryPerimeter=0;" parent="1" source="AVb4YJZ0GUQx_zkOTaE5-46" target="AVb4YJZ0GUQx_zkOTaE5-47" edge="1">
            <mxGeometry width="100" height="100" relative="1" as="geometry">
              <Array as="points" />
            </mxGeometry>
          </mxCell>
        </UserObject>
        <UserObject label="Create Information Flow Diagrams" lucidchartObjectId="YcP1uo-o60n." id="AVb4YJZ0GUQx_zkOTaE5-26">
          <mxCell style="html=1;overflow=block;blockSpacing=1;whiteSpace=wrap;;whiteSpace=wrap;fontSize=16.7;fontColor=#333333;spacing=9;strokeColor=#5e5e5e;strokeOpacity=100;rounded=1;absoluteArcSize=1;arcSize=9;strokeWidth=2.3;" parent="1" vertex="1">
            <mxGeometry x="376" y="689" width="135" height="90" as="geometry" />
          </mxCell>
        </UserObject>
        <UserObject label="Create/Update Design Document" lucidchartObjectId="mfP14qklFpgX" id="AVb4YJZ0GUQx_zkOTaE5-27">
          <mxCell style="html=1;overflow=block;blockSpacing=1;whiteSpace=wrap;;whiteSpace=wrap;fontSize=16.7;fontColor=#333333;spacing=9;strokeColor=#5e5e5e;strokeOpacity=100;rounded=1;absoluteArcSize=1;arcSize=9;strokeWidth=2.3;" parent="1" vertex="1">
            <mxGeometry x="735" y="90" width="120" height="90" as="geometry" />
          </mxCell>
        </UserObject>
        <UserObject label="" lucidchartObjectId="ZfP1YeWRrEf5" id="AVb4YJZ0GUQx_zkOTaE5-28">
          <mxCell style="html=1;jettySize=18;whiteSpace=wrap;fontSize=13;strokeColor=#5E5E5E;strokeWidth=1.5;rounded=1;arcSize=12;edgeStyle=orthogonalEdgeStyle;startArrow=none;;endArrow=block;endFill=1;;exitX=1.009;exitY=0.5;exitPerimeter=0;entryX=-0.019;entryY=0.5;entryPerimeter=0;" parent="1" source="AVb4YJZ0GUQx_zkOTaE5-27" target="AVb4YJZ0GUQx_zkOTaE5-39" edge="1">
            <mxGeometry width="100" height="100" relative="1" as="geometry">
              <Array as="points" />
            </mxGeometry>
          </mxCell>
        </UserObject>
        <UserObject label="Identify Security Impacts" lucidchartObjectId="RqP1--KT8to7" id="AVb4YJZ0GUQx_zkOTaE5-29">
          <mxCell style="html=1;overflow=block;blockSpacing=1;whiteSpace=wrap;;whiteSpace=wrap;fontSize=16.7;fontColor=#333333;spacing=9;strokeColor=#5e5e5e;strokeOpacity=100;rounded=1;absoluteArcSize=1;arcSize=9;strokeWidth=2.3;" parent="1" vertex="1">
            <mxGeometry x="210" y="838" width="120" height="90" as="geometry" />
          </mxCell>
        </UserObject>
        <UserObject label="Conduct a Threat &amp; Risk Assessment" lucidchartObjectId="OsP1~5JxmUKb" id="AVb4YJZ0GUQx_zkOTaE5-30">
          <mxCell style="html=1;overflow=block;blockSpacing=1;whiteSpace=wrap;;whiteSpace=wrap;fontSize=16.7;fontColor=#333333;spacing=9;strokeColor=#5e5e5e;strokeOpacity=100;rounded=1;absoluteArcSize=1;arcSize=9;strokeWidth=2.3;" parent="1" vertex="1">
            <mxGeometry x="383.5" y="838" width="120" height="90" as="geometry" />
          </mxCell>
        </UserObject>
        <UserObject label="" lucidchartObjectId="8sP1z_NeXsLd" id="AVb4YJZ0GUQx_zkOTaE5-31">
          <mxCell style="html=1;jettySize=18;whiteSpace=wrap;fontSize=13;strokeColor=#5E5E5E;strokeWidth=1.5;rounded=1;arcSize=12;edgeStyle=orthogonalEdgeStyle;startArrow=none;;endArrow=block;endFill=1;;exitX=1.009;exitY=0.5;exitPerimeter=0;entryX=-0.009;entryY=0.5;entryPerimeter=0;" parent="1" source="AVb4YJZ0GUQx_zkOTaE5-29" target="AVb4YJZ0GUQx_zkOTaE5-30" edge="1">
            <mxGeometry width="100" height="100" relative="1" as="geometry">
              <Array as="points" />
            </mxGeometry>
          </mxCell>
        </UserObject>
        <UserObject label="Update Design Document" lucidchartObjectId="jtP1f2_Pcvkd" id="AVb4YJZ0GUQx_zkOTaE5-32">
          <mxCell style="html=1;overflow=block;blockSpacing=1;whiteSpace=wrap;;whiteSpace=wrap;fontSize=16.7;fontColor=#333333;spacing=9;strokeColor=#5e5e5e;strokeOpacity=100;rounded=1;absoluteArcSize=1;arcSize=9;strokeWidth=2.3;" parent="1" vertex="1">
            <mxGeometry x="555" y="837" width="120" height="90" as="geometry" />
          </mxCell>
        </UserObject>
        <UserObject label="" lucidchartObjectId="xtP1cm6Xjqy0" id="AVb4YJZ0GUQx_zkOTaE5-33">
          <mxCell style="html=1;jettySize=18;whiteSpace=wrap;fontSize=13;strokeColor=#5E5E5E;strokeWidth=1.5;rounded=1;arcSize=12;edgeStyle=orthogonalEdgeStyle;startArrow=none;;endArrow=block;endFill=1;;exitX=1.009;exitY=0.5;exitPerimeter=0;entryX=-0.009;entryY=0.5;entryPerimeter=0;" parent="1" source="AVb4YJZ0GUQx_zkOTaE5-30" target="AVb4YJZ0GUQx_zkOTaE5-32" edge="1">
            <mxGeometry width="100" height="100" relative="1" as="geometry">
              <Array as="points" />
            </mxGeometry>
          </mxCell>
        </UserObject>
        <UserObject label="" lucidchartObjectId="XvP1DHTbA9Ly" id="AVb4YJZ0GUQx_zkOTaE5-34">
          <mxCell style="html=1;jettySize=18;whiteSpace=wrap;fontSize=13;strokeColor=#5E5E5E;strokeWidth=1.5;rounded=1;arcSize=12;edgeStyle=orthogonalEdgeStyle;startArrow=none;;endArrow=block;endFill=1;;exitX=0.5;exitY=1.013;exitPerimeter=0;entryX=0.5;entryY=-0.012;entryPerimeter=0;" parent="1" source="AVb4YJZ0GUQx_zkOTaE5-14" target="AVb4YJZ0GUQx_zkOTaE5-15" edge="1">
            <mxGeometry width="100" height="100" relative="1" as="geometry">
              <Array as="points" />
            </mxGeometry>
          </mxCell>
        </UserObject>
        <UserObject label="Identify Infrastructure Impacts" lucidchartObjectId="jxP1JEtCtKO3" id="AVb4YJZ0GUQx_zkOTaE5-35">
          <mxCell style="html=1;overflow=block;blockSpacing=1;whiteSpace=wrap;;whiteSpace=wrap;fontSize=16.7;fontColor=#333333;spacing=9;strokeColor=#5e5e5e;strokeOpacity=100;rounded=1;absoluteArcSize=1;arcSize=9;strokeWidth=2.3;" parent="1" vertex="1">
            <mxGeometry x="210" y="990" width="120" height="90" as="geometry" />
          </mxCell>
        </UserObject>
        <UserObject label="" lucidchartObjectId="uxP1hJjZuLYQ" id="AVb4YJZ0GUQx_zkOTaE5-36">
          <mxCell style="html=1;jettySize=18;whiteSpace=wrap;fontSize=13;strokeColor=#5E5E5E;strokeWidth=3;rounded=1;arcSize=12;edgeStyle=orthogonalEdgeStyle;startArrow=none;;endArrow=block;endFill=1;;exitX=0.5;exitY=1.019;exitPerimeter=0;entryX=0.5;entryY=-0.012;entryPerimeter=0;" parent="1" source="AVb4YJZ0GUQx_zkOTaE5-49" target="AVb4YJZ0GUQx_zkOTaE5-35" edge="1">
            <mxGeometry width="100" height="100" relative="1" as="geometry">
              <Array as="points">
                <mxPoint x="1245" y="940" />
                <mxPoint x="270" y="940" />
              </Array>
            </mxGeometry>
          </mxCell>
        </UserObject>
        <UserObject label="Update Design Document" lucidchartObjectId="KxP17djjM~ei" id="AVb4YJZ0GUQx_zkOTaE5-37">
          <mxCell style="html=1;overflow=block;blockSpacing=1;whiteSpace=wrap;;whiteSpace=wrap;fontSize=16.7;fontColor=#333333;spacing=9;strokeColor=#5e5e5e;strokeOpacity=100;rounded=1;absoluteArcSize=1;arcSize=9;strokeWidth=2.3;" parent="1" vertex="1">
            <mxGeometry x="383.5" y="990" width="120" height="90" as="geometry" />
          </mxCell>
        </UserObject>
        <UserObject label="" lucidchartObjectId="TxP1~xDTzD9_" id="AVb4YJZ0GUQx_zkOTaE5-38">
          <mxCell style="html=1;jettySize=18;whiteSpace=wrap;fontSize=13;strokeColor=#5E5E5E;strokeWidth=1.5;rounded=1;arcSize=12;edgeStyle=orthogonalEdgeStyle;startArrow=none;;endArrow=block;endFill=1;;exitX=1.009;exitY=0.5;exitPerimeter=0;entryX=-0.009;entryY=0.5;entryPerimeter=0;" parent="1" source="AVb4YJZ0GUQx_zkOTaE5-35" target="AVb4YJZ0GUQx_zkOTaE5-37" edge="1">
            <mxGeometry width="100" height="100" relative="1" as="geometry">
              <Array as="points" />
            </mxGeometry>
          </mxCell>
        </UserObject>
        <UserObject label="&lt;font style=&quot;font-size: 14px&quot;&gt;Gate 0 Review&amp;nbsp;&lt;/font&gt;" lucidchartObjectId="FJP1_6xfFEb0" id="AVb4YJZ0GUQx_zkOTaE5-39">
          <mxCell style="html=1;overflow=block;blockSpacing=1;whiteSpace=wrap;ellipse;whiteSpace=wrap;fontSize=16.7;fontColor=#333333;fontStyle=1;spacing=3.8;strokeColor=#5e5e5e;strokeOpacity=100;rounded=1;absoluteArcSize=1;arcSize=9;strokeWidth=2.3;" parent="1" vertex="1">
            <mxGeometry x="1215" y="105" width="60" height="60" as="geometry" />
          </mxCell>
        </UserObject>
        <UserObject label="" lucidchartObjectId="JLP1m7JGDrfx" id="AVb4YJZ0GUQx_zkOTaE5-40">
          <mxCell style="html=1;jettySize=18;whiteSpace=wrap;fontSize=13;strokeColor=#5E5E5E;strokeWidth=3;rounded=1;arcSize=12;edgeStyle=orthogonalEdgeStyle;startArrow=none;;endArrow=block;endFill=1;;exitX=0.5;exitY=1.019;exitPerimeter=0;entryX=0.5;entryY=0;entryDx=0;entryDy=0;" parent="1" source="AVb4YJZ0GUQx_zkOTaE5-39" target="chuD_WC5-JzSlJ0CMf8W-3" edge="1">
            <mxGeometry width="100" height="100" relative="1" as="geometry">
              <Array as="points">
                <mxPoint x="1245" y="500" />
                <mxPoint x="278" y="500" />
              </Array>
            </mxGeometry>
          </mxCell>
        </UserObject>
        <UserObject label="&lt;font style=&quot;font-size: 14px&quot;&gt;Gate 1 Review&lt;/font&gt;" lucidchartObjectId="jNP1mZHJu1dR" id="AVb4YJZ0GUQx_zkOTaE5-41">
          <mxCell style="html=1;overflow=block;blockSpacing=1;whiteSpace=wrap;ellipse;whiteSpace=wrap;fontSize=16.7;fontColor=#333333;fontStyle=1;spacing=3.8;strokeColor=#5e5e5e;strokeOpacity=100;rounded=1;absoluteArcSize=1;arcSize=9;strokeWidth=2.3;" parent="1" vertex="1">
            <mxGeometry x="1215" y="704" width="60" height="60" as="geometry" />
          </mxCell>
        </UserObject>
        <UserObject label="" lucidchartObjectId="yNP1H3n8XRnV" id="AVb4YJZ0GUQx_zkOTaE5-42">
          <mxCell style="html=1;jettySize=18;whiteSpace=wrap;fontSize=13;strokeColor=#5E5E5E;strokeWidth=1.5;rounded=1;arcSize=12;edgeStyle=orthogonalEdgeStyle;startArrow=none;;endArrow=block;endFill=1;;exitX=1.009;exitY=0.5;exitPerimeter=0;entryX=-0.019;entryY=0.5;entryPerimeter=0;" parent="1" source="AVb4YJZ0GUQx_zkOTaE5-19" target="AVb4YJZ0GUQx_zkOTaE5-41" edge="1">
            <mxGeometry width="100" height="100" relative="1" as="geometry">
              <Array as="points" />
            </mxGeometry>
          </mxCell>
        </UserObject>
        <UserObject label="" lucidchartObjectId="VNP1dxmghXI5" id="AVb4YJZ0GUQx_zkOTaE5-43">
          <mxCell style="html=1;jettySize=18;whiteSpace=wrap;fontSize=13;strokeColor=#5E5E5E;strokeWidth=3;rounded=1;arcSize=12;edgeStyle=orthogonalEdgeStyle;startArrow=none;;endArrow=block;endFill=1;;exitX=0.5;exitY=1.019;exitPerimeter=0;entryX=0.5;entryY=-0.012;entryPerimeter=0;" parent="1" source="AVb4YJZ0GUQx_zkOTaE5-41" target="AVb4YJZ0GUQx_zkOTaE5-29" edge="1">
            <mxGeometry width="100" height="100" relative="1" as="geometry">
              <Array as="points">
                <mxPoint x="1245" y="800" />
                <mxPoint x="270" y="800" />
              </Array>
            </mxGeometry>
          </mxCell>
        </UserObject>
        <UserObject label="&lt;font style=&quot;font-size: 14px&quot;&gt;Gate 3 Review&lt;/font&gt;" lucidchartObjectId="FQP1i76.TcXu" id="AVb4YJZ0GUQx_zkOTaE5-44">
          <mxCell style="html=1;overflow=block;blockSpacing=1;whiteSpace=wrap;ellipse;whiteSpace=wrap;fontSize=16.7;fontColor=#333333;fontStyle=1;spacing=3.8;strokeColor=#5e5e5e;strokeOpacity=100;rounded=1;absoluteArcSize=1;arcSize=9;strokeWidth=2.3;" parent="1" vertex="1">
            <mxGeometry x="1215" y="1005" width="60" height="60" as="geometry" />
          </mxCell>
        </UserObject>
        <UserObject label="" lucidchartObjectId="PQP1FK4Xm_Z1" id="AVb4YJZ0GUQx_zkOTaE5-45">
          <mxCell style="html=1;jettySize=18;whiteSpace=wrap;fontSize=13;strokeColor=#5E5E5E;strokeWidth=1.5;rounded=1;arcSize=12;edgeStyle=orthogonalEdgeStyle;startArrow=none;;endArrow=block;endFill=1;;exitX=1.009;exitY=0.5;exitPerimeter=0;entryX=-0.019;entryY=0.5;entryPerimeter=0;" parent="1" source="AVb4YJZ0GUQx_zkOTaE5-37" target="AVb4YJZ0GUQx_zkOTaE5-44" edge="1">
            <mxGeometry width="100" height="100" relative="1" as="geometry">
              <Array as="points" />
            </mxGeometry>
          </mxCell>
        </UserObject>
        <UserObject label="Identify Application Configuration" lucidchartObjectId="sUP1GlU~xS-8" id="AVb4YJZ0GUQx_zkOTaE5-46">
          <mxCell style="html=1;overflow=block;blockSpacing=1;whiteSpace=wrap;;whiteSpace=wrap;fontSize=16.7;fontColor=#333333;spacing=9;strokeColor=#5e5e5e;strokeOpacity=100;rounded=1;absoluteArcSize=1;arcSize=9;strokeWidth=2.3;" parent="1" vertex="1">
            <mxGeometry x="555" y="689" width="120" height="90" as="geometry" />
          </mxCell>
        </UserObject>
        <UserObject label="Identify Systems Configuration" lucidchartObjectId="WVP14EjplxEl" id="AVb4YJZ0GUQx_zkOTaE5-47">
          <mxCell style="html=1;overflow=block;blockSpacing=1;whiteSpace=wrap;;whiteSpace=wrap;fontSize=16.7;fontColor=#333333;spacing=9;strokeColor=#5e5e5e;strokeOpacity=100;rounded=1;absoluteArcSize=1;arcSize=9;strokeWidth=2.3;" parent="1" vertex="1">
            <mxGeometry x="720" y="689" width="120" height="90" as="geometry" />
          </mxCell>
        </UserObject>
        <UserObject label="Identify User Roles in the application" lucidchartObjectId="3WP1Qh0GsX.." id="AVb4YJZ0GUQx_zkOTaE5-48">
          <mxCell style="html=1;overflow=block;blockSpacing=1;whiteSpace=wrap;;whiteSpace=wrap;fontSize=16.7;fontColor=#333333;spacing=9;strokeColor=#5e5e5e;strokeOpacity=100;rounded=1;absoluteArcSize=1;arcSize=9;strokeWidth=2.3;" parent="1" vertex="1">
            <mxGeometry x="885" y="689" width="120" height="90" as="geometry" />
          </mxCell>
        </UserObject>
        <UserObject label="&lt;font style=&quot;font-size: 14px&quot;&gt;Gate 2 Review&lt;/font&gt;" lucidchartObjectId="wiq2nOIXPtyR" id="AVb4YJZ0GUQx_zkOTaE5-49">
          <mxCell style="html=1;overflow=block;blockSpacing=1;whiteSpace=wrap;ellipse;whiteSpace=wrap;fontSize=16.7;fontColor=#333333;fontStyle=1;spacing=3.8;strokeColor=#5e5e5e;strokeOpacity=100;rounded=1;absoluteArcSize=1;arcSize=9;strokeWidth=2.3;" parent="1" vertex="1">
            <mxGeometry x="1215" y="852" width="60" height="60" as="geometry" />
          </mxCell>
        </UserObject>
        <UserObject label="" lucidchartObjectId="~iq2fUWX1baG" id="AVb4YJZ0GUQx_zkOTaE5-50">
          <mxCell style="html=1;jettySize=18;whiteSpace=wrap;fontSize=13;strokeColor=#5E5E5E;strokeWidth=1.5;rounded=1;arcSize=12;edgeStyle=orthogonalEdgeStyle;startArrow=none;;endArrow=block;endFill=1;;exitX=1.009;exitY=0.5;exitPerimeter=0;entryX=-0.019;entryY=0.5;entryPerimeter=0;" parent="1" source="AVb4YJZ0GUQx_zkOTaE5-32" target="AVb4YJZ0GUQx_zkOTaE5-49" edge="1">
            <mxGeometry width="100" height="100" relative="1" as="geometry">
              <Array as="points" />
            </mxGeometry>
          </mxCell>
        </UserObject>
        <mxCell id="chuD_WC5-JzSlJ0CMf8W-4" style="edgeStyle=orthogonalEdgeStyle;rounded=1;orthogonalLoop=1;jettySize=auto;html=1;exitX=1;exitY=0.5;exitDx=0;exitDy=0;strokeWidth=3;strokeColor=#5E5E5E;arcSize=12;endArrow=block;endFill=1;" parent="1" source="MOcHHpE1gg_xAxi6Tij9-1" target="AVb4YJZ0GUQx_zkOTaE5-16" edge="1">
          <mxGeometry relative="1" as="geometry">
            <Array as="points">
              <mxPoint x="540" y="585" />
              <mxPoint x="540" y="640" />
              <mxPoint x="278" y="640" />
            </Array>
          </mxGeometry>
        </mxCell>
        <mxCell id="MOcHHpE1gg_xAxi6Tij9-2" value="" style="edgeStyle=orthogonalEdgeStyle;rounded=1;orthogonalLoop=1;jettySize=auto;html=1;strokeColor=#5E5E5E;strokeWidth=1.5;fontSize=2;endArrow=block;endFill=1;" parent="1" source="chuD_WC5-JzSlJ0CMf8W-3" target="MOcHHpE1gg_xAxi6Tij9-1" edge="1">
          <mxGeometry relative="1" as="geometry" />
        </mxCell>
        <UserObject label="Conduct a Privacy Impact Assessment" lucidchartObjectId="YcP1uo-o60n." id="chuD_WC5-JzSlJ0CMf8W-3">
          <mxCell style="html=1;overflow=block;blockSpacing=1;whiteSpace=wrap;;whiteSpace=wrap;fontSize=16.7;fontColor=#333333;spacing=9;strokeColor=#5e5e5e;strokeOpacity=100;rounded=1;absoluteArcSize=1;arcSize=9;strokeWidth=2.3;" parent="1" vertex="1">
            <mxGeometry x="210" y="540" width="135" height="90" as="geometry" />
          </mxCell>
        </UserObject>
        <UserObject label="Conduct a Data Retention Assessment" lucidchartObjectId="YcP1uo-o60n." id="MOcHHpE1gg_xAxi6Tij9-1">
          <mxCell style="html=1;overflow=block;blockSpacing=1;whiteSpace=wrap;;whiteSpace=wrap;fontSize=16.7;fontColor=#333333;spacing=9;strokeColor=#5e5e5e;strokeOpacity=100;rounded=1;absoluteArcSize=1;arcSize=9;strokeWidth=2.3;" parent="1" vertex="1">
            <mxGeometry x="376" y="540" width="135" height="90" as="geometry" />
          </mxCell>
        </UserObject>
      </root>
    </mxGraphModel>
  </diagram>
  <diagram id="rRH65RNkGemd22fgG2Ym" name="Gate 4">
    <mxGraphModel dx="1303" dy="1223" grid="1" gridSize="10" guides="1" tooltips="1" connect="1" arrows="1" fold="1" page="1" pageScale="1" pageWidth="1100" pageHeight="850" math="0" shadow="0">
      <root>
        <mxCell id="XasEgrCG_01ZRWQJgsqY-0" />
        <mxCell id="XasEgrCG_01ZRWQJgsqY-1" parent="XasEgrCG_01ZRWQJgsqY-0" />
        <mxCell id="XasEgrCG_01ZRWQJgsqY-2" value="" style="fillColor=none;strokeColor=none;pointerEvents=0;fontStyle=0;html=1;whiteSpace=wrap;container=1;collapsible=0;childLayout=stackLayout;resizeParent=1;dropTarget=0;horizontalStack=0;whiteSpace=wrap;fontSize=13;spacing=0;strokeOpacity=100;rounded=1;absoluteArcSize=1;arcSize=9;horizontal=0;strokeWidth=2.3;" vertex="1" parent="XasEgrCG_01ZRWQJgsqY-1">
          <mxGeometry x="20" y="20" width="1133.75" height="900" isRotated="1" as="geometry" />
        </mxCell>
        <mxCell id="XasEgrCG_01ZRWQJgsqY-3" value="QA/UAT &#xa;Analyst" style="swimlane;html=1;whiteSpace=wrap;container=1;connectable=0;collapsible=0;fontStyle=0;startSize=45;dropTarget=0;rounded=0;horizontal=0;whiteSpace=wrap;fontSize=13;spacing=0;strokeColor=#5e5e5e;strokeOpacity=100;strokeWidth=2.3;fontSize=16.7;fontColor=#333333;" vertex="1" parent="XasEgrCG_01ZRWQJgsqY-2">
          <mxGeometry width="1133.75" height="150" as="geometry" />
        </mxCell>
        <mxCell id="XasEgrCG_01ZRWQJgsqY-4" value="Business Analyst" style="swimlane;html=1;whiteSpace=wrap;container=1;connectable=0;collapsible=0;fontStyle=0;startSize=45;dropTarget=0;rounded=0;horizontal=0;whiteSpace=wrap;fontSize=13;spacing=0;strokeColor=#5e5e5e;strokeOpacity=100;strokeWidth=2.3;fontSize=16.7;fontColor=#333333;" vertex="1" parent="XasEgrCG_01ZRWQJgsqY-2">
          <mxGeometry y="150" width="1133.75" height="150" as="geometry" />
        </mxCell>
        <mxCell id="XasEgrCG_01ZRWQJgsqY-5" value="Business Operations" style="swimlane;html=1;whiteSpace=wrap;container=1;connectable=0;collapsible=0;fontStyle=0;startSize=45;dropTarget=0;rounded=0;horizontal=0;whiteSpace=wrap;fontSize=13;spacing=0;strokeColor=#5e5e5e;strokeOpacity=100;strokeWidth=2.3;fontSize=16.7;fontColor=#333333;" vertex="1" parent="XasEgrCG_01ZRWQJgsqY-2">
          <mxGeometry y="300" width="1133.75" height="150" as="geometry" />
        </mxCell>
        <mxCell id="XasEgrCG_01ZRWQJgsqY-6" value="Systems Analyst" style="swimlane;html=1;whiteSpace=wrap;container=1;connectable=0;collapsible=0;fontStyle=0;startSize=45;dropTarget=0;rounded=0;horizontal=0;whiteSpace=wrap;fontSize=13;spacing=0;strokeColor=#5e5e5e;strokeOpacity=100;strokeWidth=2.3;fontSize=16.7;fontColor=#333333;" vertex="1" parent="XasEgrCG_01ZRWQJgsqY-2">
          <mxGeometry y="450" width="1133.75" height="150" as="geometry" />
        </mxCell>
        <mxCell id="XasEgrCG_01ZRWQJgsqY-7" value="Security Architect" style="swimlane;html=1;whiteSpace=wrap;container=1;connectable=0;collapsible=0;fontStyle=0;startSize=45;dropTarget=0;rounded=0;horizontal=0;whiteSpace=wrap;fontSize=13;spacing=0;strokeColor=#5e5e5e;strokeOpacity=100;strokeWidth=2.3;fontSize=16.7;fontColor=#333333;" vertex="1" parent="XasEgrCG_01ZRWQJgsqY-2">
          <mxGeometry y="600" width="1133.75" height="150" as="geometry" />
        </mxCell>
        <mxCell id="XasEgrCG_01ZRWQJgsqY-8" value="Infrastructure Architect" style="swimlane;html=1;whiteSpace=wrap;container=1;connectable=0;collapsible=0;fontStyle=0;startSize=45;dropTarget=0;rounded=0;horizontal=0;whiteSpace=wrap;fontSize=13;spacing=0;strokeColor=#5e5e5e;strokeOpacity=100;strokeWidth=2.3;fontSize=16.7;fontColor=#333333;" vertex="1" parent="XasEgrCG_01ZRWQJgsqY-2">
          <mxGeometry y="750" width="1133.75" height="150" as="geometry" />
        </mxCell>
        <UserObject label="Create Test Cases" lucidchartObjectId="v6P1YMcNLZ-x" id="XasEgrCG_01ZRWQJgsqY-9">
          <mxCell style="html=1;overflow=block;blockSpacing=1;whiteSpace=wrap;;whiteSpace=wrap;fontSize=16.7;fontColor=#333333;spacing=9;strokeColor=#5e5e5e;strokeOpacity=100;rounded=1;absoluteArcSize=1;arcSize=9;strokeWidth=2.3;" vertex="1" parent="XasEgrCG_01ZRWQJgsqY-1">
            <mxGeometry x="320" y="50" width="120" height="90" as="geometry" />
          </mxCell>
        </UserObject>
        <UserObject label="" lucidchartObjectId="o7P1JVLeuYR." id="XasEgrCG_01ZRWQJgsqY-10">
          <mxCell style="html=1;jettySize=18;whiteSpace=wrap;fontSize=13;strokeColor=#5E5E5E;strokeWidth=1.5;rounded=1;arcSize=12;edgeStyle=orthogonalEdgeStyle;startArrow=none;;endArrow=block;endFill=1;;exitX=1.009;exitY=0.5;exitPerimeter=0;entryX=-0.009;entryY=0.5;entryPerimeter=0;" edge="1" parent="XasEgrCG_01ZRWQJgsqY-1" source="XasEgrCG_01ZRWQJgsqY-11" target="XasEgrCG_01ZRWQJgsqY-9">
            <mxGeometry width="100" height="100" relative="1" as="geometry">
              <Array as="points" />
            </mxGeometry>
          </mxCell>
        </UserObject>
        <UserObject label="Design Document" lucidchartObjectId="Z7P19xGorQOq" id="XasEgrCG_01ZRWQJgsqY-11">
          <mxCell style="html=1;overflow=block;blockSpacing=1;whiteSpace=wrap;shape=mxgraph.flowchart.multi-document;whiteSpace=wrap;fontSize=16.7;fontColor=#333333;spacing=3.8;strokeColor=#5e5e5e;strokeOpacity=100;rounded=1;absoluteArcSize=1;arcSize=9;strokeWidth=2.3;" vertex="1" parent="XasEgrCG_01ZRWQJgsqY-1">
            <mxGeometry x="95" y="50" width="120" height="90" as="geometry" />
          </mxCell>
        </UserObject>
        <UserObject label="Review &amp; Approve Test Cases" lucidchartObjectId="_7P16RHHg4RQ" id="XasEgrCG_01ZRWQJgsqY-12">
          <mxCell style="html=1;overflow=block;blockSpacing=1;whiteSpace=wrap;;whiteSpace=wrap;fontSize=16.7;fontColor=#333333;spacing=9;strokeColor=#5e5e5e;strokeOpacity=100;rounded=1;absoluteArcSize=1;arcSize=9;strokeWidth=2.3;" vertex="1" parent="XasEgrCG_01ZRWQJgsqY-1">
            <mxGeometry x="320" y="200" width="120" height="90" as="geometry" />
          </mxCell>
        </UserObject>
        <UserObject label="" lucidchartObjectId="u8P11B8v_6Ab" id="XasEgrCG_01ZRWQJgsqY-13">
          <mxCell style="html=1;jettySize=18;whiteSpace=wrap;fontSize=13;strokeColor=#5E5E5E;strokeWidth=1.5;rounded=1;arcSize=12;edgeStyle=orthogonalEdgeStyle;startArrow=none;;endArrow=block;endFill=1;;exitX=0.5;exitY=1.013;exitPerimeter=0;entryX=0.5;entryY=-0.012;entryPerimeter=0;" edge="1" parent="XasEgrCG_01ZRWQJgsqY-1" source="XasEgrCG_01ZRWQJgsqY-9" target="XasEgrCG_01ZRWQJgsqY-12">
            <mxGeometry width="100" height="100" relative="1" as="geometry">
              <Array as="points" />
            </mxGeometry>
          </mxCell>
        </UserObject>
        <UserObject label="Review &amp; Approve Test Cases" lucidchartObjectId="H8P1cTXD7HkQ" id="XasEgrCG_01ZRWQJgsqY-14">
          <mxCell style="html=1;overflow=block;blockSpacing=1;whiteSpace=wrap;;whiteSpace=wrap;fontSize=16.7;fontColor=#333333;spacing=9;strokeColor=#5e5e5e;strokeOpacity=100;rounded=1;absoluteArcSize=1;arcSize=9;strokeWidth=2.3;" vertex="1" parent="XasEgrCG_01ZRWQJgsqY-1">
            <mxGeometry x="320" y="350" width="120" height="90" as="geometry" />
          </mxCell>
        </UserObject>
        <UserObject label="" lucidchartObjectId="N8P13eCoha~y" id="XasEgrCG_01ZRWQJgsqY-15">
          <mxCell style="html=1;jettySize=18;whiteSpace=wrap;fontSize=13;strokeColor=#5E5E5E;strokeWidth=1.5;rounded=1;arcSize=12;edgeStyle=orthogonalEdgeStyle;startArrow=none;;endArrow=block;endFill=1;;exitX=0.5;exitY=1.013;exitPerimeter=0;entryX=0.5;entryY=-0.012;entryPerimeter=0;" edge="1" parent="XasEgrCG_01ZRWQJgsqY-1" source="XasEgrCG_01ZRWQJgsqY-12" target="XasEgrCG_01ZRWQJgsqY-14">
            <mxGeometry width="100" height="100" relative="1" as="geometry">
              <Array as="points" />
            </mxGeometry>
          </mxCell>
        </UserObject>
        <UserObject label="Create Test Plan" lucidchartObjectId="n9P1cUc4OIj8" id="XasEgrCG_01ZRWQJgsqY-16">
          <mxCell style="html=1;overflow=block;blockSpacing=1;whiteSpace=wrap;;whiteSpace=wrap;fontSize=16.7;fontColor=#333333;spacing=9;strokeColor=#5e5e5e;strokeOpacity=100;rounded=1;absoluteArcSize=1;arcSize=9;strokeWidth=2.3;" vertex="1" parent="XasEgrCG_01ZRWQJgsqY-1">
            <mxGeometry x="500" y="50" width="120" height="90" as="geometry" />
          </mxCell>
        </UserObject>
        <UserObject label="" lucidchartObjectId="I9P16z0FK6Jd" id="XasEgrCG_01ZRWQJgsqY-17">
          <mxCell style="html=1;jettySize=18;whiteSpace=wrap;fontSize=13;strokeColor=#5E5E5E;strokeWidth=1.5;rounded=1;arcSize=12;edgeStyle=orthogonalEdgeStyle;startArrow=none;;endArrow=block;endFill=1;;exitX=1.009;exitY=0.5;exitPerimeter=0;entryX=-0.009;entryY=0.5;entryPerimeter=0;" edge="1" parent="XasEgrCG_01ZRWQJgsqY-1" source="XasEgrCG_01ZRWQJgsqY-14" target="XasEgrCG_01ZRWQJgsqY-16">
            <mxGeometry width="100" height="100" relative="1" as="geometry">
              <Array as="points">
                <mxPoint x="470" y="395" />
                <mxPoint x="470" y="95" />
              </Array>
            </mxGeometry>
          </mxCell>
        </UserObject>
        <UserObject label="Create Implementation Plan" lucidchartObjectId="29P1we5Y7l_7" id="XasEgrCG_01ZRWQJgsqY-18">
          <mxCell style="html=1;overflow=block;blockSpacing=1;whiteSpace=wrap;;whiteSpace=wrap;fontSize=16.7;fontColor=#333333;spacing=9;strokeColor=#5e5e5e;strokeOpacity=100;rounded=1;absoluteArcSize=1;arcSize=9;strokeWidth=2.3;" vertex="1" parent="XasEgrCG_01ZRWQJgsqY-1">
            <mxGeometry x="320" y="500" width="120" height="90" as="geometry" />
          </mxCell>
        </UserObject>
        <UserObject label="Create Implementation Plan" lucidchartObjectId="d-P1AAcEhvdO" id="XasEgrCG_01ZRWQJgsqY-19">
          <mxCell style="html=1;overflow=block;blockSpacing=1;whiteSpace=wrap;;whiteSpace=wrap;fontSize=16.7;fontColor=#333333;spacing=9;strokeColor=#5e5e5e;strokeOpacity=100;rounded=1;absoluteArcSize=1;arcSize=9;strokeWidth=2.3;" vertex="1" parent="XasEgrCG_01ZRWQJgsqY-1">
            <mxGeometry x="320" y="650" width="120" height="90" as="geometry" />
          </mxCell>
        </UserObject>
        <UserObject label="Create Implementation Plan" lucidchartObjectId="i-P1akHYoDo-" id="XasEgrCG_01ZRWQJgsqY-20">
          <mxCell style="html=1;overflow=block;blockSpacing=1;whiteSpace=wrap;;whiteSpace=wrap;fontSize=16.7;fontColor=#333333;spacing=9;strokeColor=#5e5e5e;strokeOpacity=100;rounded=1;absoluteArcSize=1;arcSize=9;strokeWidth=2.3;" vertex="1" parent="XasEgrCG_01ZRWQJgsqY-1">
            <mxGeometry x="320" y="800" width="120" height="90" as="geometry" />
          </mxCell>
        </UserObject>
        <UserObject label="Project Implementation Plan MOP" lucidchartObjectId="L-P1yo3_hU-Q" id="XasEgrCG_01ZRWQJgsqY-21">
          <mxCell style="html=1;overflow=block;blockSpacing=1;whiteSpace=wrap;shape=document;boundedLbl=1;whiteSpace=wrap;fontSize=16.7;fontColor=#333333;spacing=3.8;strokeColor=#5e5e5e;strokeOpacity=100;rounded=1;absoluteArcSize=1;arcSize=9;strokeWidth=2.3;" vertex="1" parent="XasEgrCG_01ZRWQJgsqY-1">
            <mxGeometry x="950" y="50" width="120" height="90" as="geometry" />
          </mxCell>
        </UserObject>
        <UserObject label="Document Helpdesk/Operational Processes" lucidchartObjectId="S_P1jHqWvL2A" id="XasEgrCG_01ZRWQJgsqY-22">
          <mxCell style="html=1;overflow=block;blockSpacing=1;whiteSpace=wrap;;whiteSpace=wrap;fontSize=16.7;fontColor=#333333;spacing=9;strokeColor=#5e5e5e;strokeOpacity=100;rounded=1;absoluteArcSize=1;arcSize=9;strokeWidth=2.3;" vertex="1" parent="XasEgrCG_01ZRWQJgsqY-1">
            <mxGeometry x="95" y="500" width="180" height="90" as="geometry" />
          </mxCell>
        </UserObject>
        <UserObject label="" lucidchartObjectId="scQ1.yMMPMs5" id="XasEgrCG_01ZRWQJgsqY-23">
          <mxCell style="html=1;jettySize=18;whiteSpace=wrap;fontSize=13;strokeColor=#5E5E5E;strokeWidth=1.5;rounded=1;arcSize=12;edgeStyle=orthogonalEdgeStyle;startArrow=none;;endArrow=block;endFill=1;;exitX=1.009;exitY=0.5;exitPerimeter=0;entryX=-0.009;entryY=0.5;entryPerimeter=0;" edge="1" parent="XasEgrCG_01ZRWQJgsqY-1" source="XasEgrCG_01ZRWQJgsqY-16" target="XasEgrCG_01ZRWQJgsqY-21">
            <mxGeometry width="100" height="100" relative="1" as="geometry">
              <Array as="points" />
            </mxGeometry>
          </mxCell>
        </UserObject>
        <UserObject label="" lucidchartObjectId="ueQ1jqb3J2Eg" id="XasEgrCG_01ZRWQJgsqY-24">
          <mxCell style="html=1;jettySize=18;whiteSpace=wrap;fontSize=13;strokeColor=#5E5E5E;strokeWidth=1.5;rounded=1;arcSize=12;edgeStyle=orthogonalEdgeStyle;startArrow=none;;endArrow=block;endFill=1;;exitX=1.006;exitY=0.5;exitPerimeter=0;entryX=-0.009;entryY=0.5;entryPerimeter=0;" edge="1" parent="XasEgrCG_01ZRWQJgsqY-1" source="XasEgrCG_01ZRWQJgsqY-22" target="XasEgrCG_01ZRWQJgsqY-18">
            <mxGeometry width="100" height="100" relative="1" as="geometry">
              <Array as="points" />
            </mxGeometry>
          </mxCell>
        </UserObject>
        <UserObject label="" lucidchartObjectId="xeQ1nUz6Ec9x" id="XasEgrCG_01ZRWQJgsqY-25">
          <mxCell style="html=1;jettySize=18;whiteSpace=wrap;fontSize=13;strokeColor=#5E5E5E;strokeWidth=1.5;rounded=1;arcSize=12;edgeStyle=orthogonalEdgeStyle;startArrow=none;;endArrow=block;endFill=1;;exitX=1.009;exitY=0.5;exitPerimeter=0;entryX=-0.009;entryY=0.5;entryPerimeter=0;" edge="1" parent="XasEgrCG_01ZRWQJgsqY-1" source="XasEgrCG_01ZRWQJgsqY-18" target="XasEgrCG_01ZRWQJgsqY-26">
            <mxGeometry width="100" height="100" relative="1" as="geometry">
              <Array as="points" />
            </mxGeometry>
          </mxCell>
        </UserObject>
        <UserObject label="Project Implementation Plan MOP" lucidchartObjectId="4eQ12wJzCivb" id="XasEgrCG_01ZRWQJgsqY-26">
          <mxCell style="html=1;overflow=block;blockSpacing=1;whiteSpace=wrap;shape=document;boundedLbl=1;whiteSpace=wrap;fontSize=16.7;fontColor=#333333;spacing=3.8;strokeColor=#5e5e5e;strokeOpacity=100;rounded=1;absoluteArcSize=1;arcSize=9;strokeWidth=2.3;" vertex="1" parent="XasEgrCG_01ZRWQJgsqY-1">
            <mxGeometry x="950" y="500" width="120" height="90" as="geometry" />
          </mxCell>
        </UserObject>
        <UserObject label="Project Implementation Plan MOP" lucidchartObjectId="-eQ1Bw4omwBL" id="XasEgrCG_01ZRWQJgsqY-27">
          <mxCell style="html=1;overflow=block;blockSpacing=1;whiteSpace=wrap;shape=document;boundedLbl=1;whiteSpace=wrap;fontSize=16.7;fontColor=#333333;spacing=3.8;strokeColor=#5e5e5e;strokeOpacity=100;rounded=1;absoluteArcSize=1;arcSize=9;strokeWidth=2.3;" vertex="1" parent="XasEgrCG_01ZRWQJgsqY-1">
            <mxGeometry x="950" y="650" width="120" height="90" as="geometry" />
          </mxCell>
        </UserObject>
        <UserObject label="" lucidchartObjectId="efQ1wM5bAvny" id="XasEgrCG_01ZRWQJgsqY-28">
          <mxCell style="html=1;jettySize=18;whiteSpace=wrap;fontSize=13;strokeColor=#5E5E5E;strokeWidth=1.5;rounded=1;arcSize=12;edgeStyle=orthogonalEdgeStyle;startArrow=none;;endArrow=block;endFill=1;;exitX=1.009;exitY=0.5;exitPerimeter=0;entryX=-0.009;entryY=0.5;entryPerimeter=0;" edge="1" parent="XasEgrCG_01ZRWQJgsqY-1" source="XasEgrCG_01ZRWQJgsqY-19" target="XasEgrCG_01ZRWQJgsqY-27">
            <mxGeometry width="100" height="100" relative="1" as="geometry">
              <Array as="points" />
            </mxGeometry>
          </mxCell>
        </UserObject>
        <UserObject label="Project Implementation Plan MOP" lucidchartObjectId="qfQ1o~TNGY5u" id="XasEgrCG_01ZRWQJgsqY-29">
          <mxCell style="html=1;overflow=block;blockSpacing=1;whiteSpace=wrap;shape=document;boundedLbl=1;whiteSpace=wrap;fontSize=16.7;fontColor=#333333;spacing=3.8;strokeColor=#5e5e5e;strokeOpacity=100;rounded=1;absoluteArcSize=1;arcSize=9;strokeWidth=2.3;" vertex="1" parent="XasEgrCG_01ZRWQJgsqY-1">
            <mxGeometry x="950" y="800" width="120" height="90" as="geometry" />
          </mxCell>
        </UserObject>
        <UserObject label="" lucidchartObjectId="JfQ1vzcKV0k8" id="XasEgrCG_01ZRWQJgsqY-30">
          <mxCell style="html=1;jettySize=18;whiteSpace=wrap;fontSize=13;strokeColor=#5E5E5E;strokeWidth=1.5;rounded=1;arcSize=12;edgeStyle=orthogonalEdgeStyle;startArrow=none;;endArrow=block;endFill=1;;exitX=1.009;exitY=0.5;exitPerimeter=0;entryX=-0.009;entryY=0.5;entryPerimeter=0;" edge="1" parent="XasEgrCG_01ZRWQJgsqY-1" source="XasEgrCG_01ZRWQJgsqY-20" target="XasEgrCG_01ZRWQJgsqY-29">
            <mxGeometry width="100" height="100" relative="1" as="geometry">
              <Array as="points" />
            </mxGeometry>
          </mxCell>
        </UserObject>
      </root>
    </mxGraphModel>
  </diagram>
  <diagram id="n51eIo3SHrVI1Gj8hDNW" name="Gate 5-6">
    <mxGraphModel dx="974" dy="478" grid="1" gridSize="10" guides="1" tooltips="1" connect="1" arrows="1" fold="1" page="1" pageScale="1" pageWidth="1100" pageHeight="850" math="0" shadow="0">
      <root>
        <mxCell id="EIwYczdbZNzWheQOIDnx-0" />
        <mxCell id="EIwYczdbZNzWheQOIDnx-1" parent="EIwYczdbZNzWheQOIDnx-0" />
        <mxCell id="EIwYczdbZNzWheQOIDnx-2" value="" style="fillColor=none;strokeColor=none;pointerEvents=0;fontStyle=0;html=1;whiteSpace=wrap;container=1;collapsible=0;childLayout=stackLayout;resizeParent=1;dropTarget=0;horizontalStack=0;whiteSpace=wrap;fontSize=13;spacing=0;strokeOpacity=100;rounded=1;absoluteArcSize=1;arcSize=9;horizontal=0;strokeWidth=2.3;" parent="EIwYczdbZNzWheQOIDnx-1" vertex="1">
          <mxGeometry x="120" y="60" width="1163.75" height="900" isRotated="1" as="geometry" />
        </mxCell>
        <mxCell id="EIwYczdbZNzWheQOIDnx-3" value="Training" style="swimlane;html=1;whiteSpace=wrap;container=1;connectable=0;collapsible=0;fontStyle=0;startSize=75;dropTarget=0;rounded=0;horizontal=0;whiteSpace=wrap;fontSize=13;spacing=0;strokeColor=#5e5e5e;strokeOpacity=100;strokeWidth=2.3;fontSize=16.7;fontColor=#333333;" parent="EIwYczdbZNzWheQOIDnx-2" vertex="1">
          <mxGeometry width="1163.75" height="150" as="geometry" />
        </mxCell>
        <mxCell id="EIwYczdbZNzWheQOIDnx-4" value="Data Migration/Cutover to new system" style="swimlane;html=1;whiteSpace=wrap;container=1;connectable=0;collapsible=0;fontStyle=0;startSize=75;dropTarget=0;rounded=0;horizontal=0;whiteSpace=wrap;fontSize=13;spacing=0;strokeColor=#5e5e5e;strokeOpacity=100;strokeWidth=2.3;fontSize=16.7;fontColor=#333333;" parent="EIwYczdbZNzWheQOIDnx-2" vertex="1">
          <mxGeometry y="150" width="1163.75" height="150" as="geometry" />
        </mxCell>
        <mxCell id="EIwYczdbZNzWheQOIDnx-5" value="Team Readiness" style="swimlane;html=1;whiteSpace=wrap;container=1;connectable=0;collapsible=0;fontStyle=0;startSize=75;dropTarget=0;rounded=0;horizontal=0;whiteSpace=wrap;fontSize=13;spacing=0;strokeColor=#5e5e5e;strokeOpacity=100;strokeWidth=2.3;fontSize=16.7;fontColor=#333333;" parent="EIwYczdbZNzWheQOIDnx-2" vertex="1">
          <mxGeometry y="300" width="1163.75" height="150" as="geometry" />
        </mxCell>
        <mxCell id="EIwYczdbZNzWheQOIDnx-6" value="Business Owner Acceptance" style="swimlane;html=1;whiteSpace=wrap;container=1;connectable=0;collapsible=0;fontStyle=0;startSize=75;dropTarget=0;rounded=0;horizontal=0;whiteSpace=wrap;fontSize=13;spacing=0;strokeColor=#5e5e5e;strokeOpacity=100;strokeWidth=2.3;fontSize=16.7;fontColor=#333333;" parent="EIwYczdbZNzWheQOIDnx-2" vertex="1">
          <mxGeometry y="450" width="1163.75" height="150" as="geometry" />
        </mxCell>
        <mxCell id="EIwYczdbZNzWheQOIDnx-7" value="Project Closure" style="swimlane;html=1;whiteSpace=wrap;container=1;connectable=0;collapsible=0;fontStyle=0;startSize=75;dropTarget=0;rounded=0;horizontal=0;whiteSpace=wrap;fontSize=13;spacing=0;strokeColor=#5e5e5e;strokeOpacity=100;strokeWidth=2.3;fontSize=16.7;fontColor=#333333;" parent="EIwYczdbZNzWheQOIDnx-2" vertex="1">
          <mxGeometry y="600" width="1163.75" height="150" as="geometry" />
        </mxCell>
        <mxCell id="EIwYczdbZNzWheQOIDnx-8" value="" style="swimlane;html=1;whiteSpace=wrap;container=1;connectable=0;collapsible=0;fontStyle=0;startSize=75;dropTarget=0;rounded=0;horizontal=0;whiteSpace=wrap;fontSize=13;spacing=0;strokeColor=#5e5e5e;strokeOpacity=100;strokeWidth=2.3;fontSize=13;" parent="EIwYczdbZNzWheQOIDnx-2" vertex="1">
          <mxGeometry y="750" width="1163.75" height="150" as="geometry" />
        </mxCell>
        <UserObject label="Create Training Documentation" lucidchartObjectId="v6P1YMcNLZ-x" id="EIwYczdbZNzWheQOIDnx-9">
          <mxCell style="html=1;overflow=block;blockSpacing=1;whiteSpace=wrap;;whiteSpace=wrap;fontSize=16.7;fontColor=#333333;spacing=9;strokeColor=#5e5e5e;strokeOpacity=100;rounded=1;absoluteArcSize=1;arcSize=9;strokeWidth=2.3;" parent="EIwYczdbZNzWheQOIDnx-1" vertex="1">
            <mxGeometry x="405" y="90" width="120" height="90" as="geometry" />
          </mxCell>
        </UserObject>
        <UserObject label="" lucidchartObjectId="o7P1JVLeuYR." id="EIwYczdbZNzWheQOIDnx-10">
          <mxCell style="html=1;jettySize=18;whiteSpace=wrap;fontSize=13;strokeColor=#5E5E5E;strokeWidth=1.5;rounded=1;arcSize=12;edgeStyle=orthogonalEdgeStyle;startArrow=none;;endArrow=block;endFill=1;;exitX=1.009;exitY=0.5;exitPerimeter=0;entryX=-0.009;entryY=0.5;entryPerimeter=0;" parent="EIwYczdbZNzWheQOIDnx-1" source="EIwYczdbZNzWheQOIDnx-11" target="EIwYczdbZNzWheQOIDnx-9" edge="1">
            <mxGeometry width="100" height="100" relative="1" as="geometry">
              <Array as="points" />
            </mxGeometry>
          </mxCell>
        </UserObject>
        <UserObject label="Design Document" lucidchartObjectId="Z7P19xGorQOq" id="EIwYczdbZNzWheQOIDnx-11">
          <mxCell style="html=1;overflow=block;blockSpacing=1;whiteSpace=wrap;shape=mxgraph.flowchart.multi-document;whiteSpace=wrap;fontSize=16.7;fontColor=#333333;spacing=3.8;strokeColor=#5e5e5e;strokeOpacity=100;rounded=1;absoluteArcSize=1;arcSize=9;strokeWidth=2.3;" parent="EIwYczdbZNzWheQOIDnx-1" vertex="1">
            <mxGeometry x="225" y="90" width="120" height="90" as="geometry" />
          </mxCell>
        </UserObject>
        <UserObject label="Identify User Population to be Trained" lucidchartObjectId="n9P1cUc4OIj8" id="EIwYczdbZNzWheQOIDnx-12">
          <mxCell style="html=1;overflow=block;blockSpacing=1;whiteSpace=wrap;;whiteSpace=wrap;fontSize=16.7;fontColor=#333333;spacing=9;strokeColor=#5e5e5e;strokeOpacity=100;rounded=1;absoluteArcSize=1;arcSize=9;strokeWidth=2.3;" parent="EIwYczdbZNzWheQOIDnx-1" vertex="1">
            <mxGeometry x="585" y="90" width="120" height="90" as="geometry" />
          </mxCell>
        </UserObject>
        <UserObject label="" lucidchartObjectId="scQ1.yMMPMs5" id="EIwYczdbZNzWheQOIDnx-13">
          <mxCell style="html=1;jettySize=18;whiteSpace=wrap;fontSize=13;strokeColor=#5E5E5E;strokeWidth=1.5;rounded=1;arcSize=12;edgeStyle=orthogonalEdgeStyle;startArrow=none;;endArrow=block;endFill=1;;exitX=1.009;exitY=0.5;exitPerimeter=0;entryX=-0.009;entryY=0.5;entryPerimeter=0;" parent="EIwYczdbZNzWheQOIDnx-1" source="EIwYczdbZNzWheQOIDnx-12" target="EIwYczdbZNzWheQOIDnx-15" edge="1">
            <mxGeometry width="100" height="100" relative="1" as="geometry">
              <Array as="points" />
            </mxGeometry>
          </mxCell>
        </UserObject>
        <UserObject label="" lucidchartObjectId="toQ1bCb0JurJ" id="EIwYczdbZNzWheQOIDnx-14">
          <mxCell style="html=1;jettySize=18;whiteSpace=wrap;fontSize=13;strokeColor=#5E5E5E;strokeWidth=1.5;rounded=1;arcSize=12;edgeStyle=orthogonalEdgeStyle;startArrow=none;;endArrow=block;endFill=1;;exitX=1.009;exitY=0.5;exitPerimeter=0;entryX=-0.009;entryY=0.5;entryPerimeter=0;" parent="EIwYczdbZNzWheQOIDnx-1" source="EIwYczdbZNzWheQOIDnx-9" target="EIwYczdbZNzWheQOIDnx-12" edge="1">
            <mxGeometry width="100" height="100" relative="1" as="geometry">
              <Array as="points" />
            </mxGeometry>
          </mxCell>
        </UserObject>
        <UserObject label="Training Complete" lucidchartObjectId="UoQ12jpjZwZV" id="EIwYczdbZNzWheQOIDnx-15">
          <mxCell style="html=1;overflow=block;blockSpacing=1;whiteSpace=wrap;rounded=1;arcSize=50;whiteSpace=wrap;fontSize=16.7;fontColor=#333333;spacing=3.8;strokeColor=#5e5e5e;strokeOpacity=100;strokeWidth=2.3;" parent="EIwYczdbZNzWheQOIDnx-1" vertex="1">
            <mxGeometry x="945" y="105" width="120" height="60" as="geometry" />
          </mxCell>
        </UserObject>
        <UserObject label="Helpdesk Sign-off" lucidchartObjectId="MpQ1abzrbARa" id="EIwYczdbZNzWheQOIDnx-16">
          <mxCell style="html=1;overflow=block;blockSpacing=1;whiteSpace=wrap;;whiteSpace=wrap;fontSize=16.7;fontColor=#333333;spacing=9;strokeColor=#5e5e5e;strokeOpacity=100;rounded=1;absoluteArcSize=1;arcSize=9;strokeWidth=2.3;" parent="EIwYczdbZNzWheQOIDnx-1" vertex="1">
            <mxGeometry x="225" y="390" width="120" height="90" as="geometry" />
          </mxCell>
        </UserObject>
        <UserObject label="Security Sign-off" lucidchartObjectId="9pQ1g5-z7ntn" id="EIwYczdbZNzWheQOIDnx-17">
          <mxCell style="html=1;overflow=block;blockSpacing=1;whiteSpace=wrap;;whiteSpace=wrap;fontSize=16.7;fontColor=#333333;spacing=9;strokeColor=#5e5e5e;strokeOpacity=100;rounded=1;absoluteArcSize=1;arcSize=9;strokeWidth=2.3;" parent="EIwYczdbZNzWheQOIDnx-1" vertex="1">
            <mxGeometry x="398" y="390" width="120" height="90" as="geometry" />
          </mxCell>
        </UserObject>
        <UserObject label="Infra Team Sign-off" lucidchartObjectId="sqQ1itr~EjtM" id="EIwYczdbZNzWheQOIDnx-18">
          <mxCell style="html=1;overflow=block;blockSpacing=1;whiteSpace=wrap;;whiteSpace=wrap;fontSize=16.7;fontColor=#333333;spacing=9;strokeColor=#5e5e5e;strokeOpacity=100;rounded=1;absoluteArcSize=1;arcSize=9;strokeWidth=2.3;" parent="EIwYczdbZNzWheQOIDnx-1" vertex="1">
            <mxGeometry x="570" y="390" width="120" height="90" as="geometry" />
          </mxCell>
        </UserObject>
        <UserObject label="Application Team Sign-off" lucidchartObjectId="arQ1kAkgj52D" id="EIwYczdbZNzWheQOIDnx-19">
          <mxCell style="html=1;overflow=block;blockSpacing=1;whiteSpace=wrap;;whiteSpace=wrap;fontSize=16.7;fontColor=#333333;spacing=9;strokeColor=#5e5e5e;strokeOpacity=100;rounded=1;absoluteArcSize=1;arcSize=9;strokeWidth=2.3;" parent="EIwYczdbZNzWheQOIDnx-1" vertex="1">
            <mxGeometry x="743" y="390" width="120" height="90" as="geometry" />
          </mxCell>
        </UserObject>
        <UserObject label="Business Operations Team Sign-off" lucidchartObjectId="ssQ1NmfsMCWB" id="EIwYczdbZNzWheQOIDnx-20">
          <mxCell style="html=1;overflow=block;blockSpacing=1;whiteSpace=wrap;;whiteSpace=wrap;fontSize=16.7;fontColor=#333333;spacing=9;strokeColor=#5e5e5e;strokeOpacity=100;rounded=1;absoluteArcSize=1;arcSize=9;strokeWidth=2.3;" parent="EIwYczdbZNzWheQOIDnx-1" vertex="1">
            <mxGeometry x="915" y="390" width="150" height="90" as="geometry" />
          </mxCell>
        </UserObject>
        <UserObject label="Migration MOP" lucidchartObjectId="6vQ1BAF-T._O" id="EIwYczdbZNzWheQOIDnx-21">
          <mxCell style="html=1;overflow=block;blockSpacing=1;whiteSpace=wrap;shape=document;boundedLbl=1;whiteSpace=wrap;fontSize=16.7;fontColor=#333333;spacing=3.8;strokeColor=#5e5e5e;strokeOpacity=100;rounded=1;absoluteArcSize=1;arcSize=9;strokeWidth=2.3;" parent="EIwYczdbZNzWheQOIDnx-1" vertex="1">
            <mxGeometry x="225" y="240" width="120" height="90" as="geometry" />
          </mxCell>
        </UserObject>
        <UserObject label="Business Owner Acceptance &amp; Sign-off" lucidchartObjectId="zwQ1XcsV1~4t" id="EIwYczdbZNzWheQOIDnx-22">
          <mxCell style="html=1;overflow=block;blockSpacing=1;whiteSpace=wrap;;whiteSpace=wrap;fontSize=16.7;fontColor=#333333;spacing=9;strokeColor=#5e5e5e;strokeOpacity=100;rounded=1;absoluteArcSize=1;arcSize=9;strokeWidth=2.3;" parent="EIwYczdbZNzWheQOIDnx-1" vertex="1">
            <mxGeometry x="225" y="536" width="120" height="98" as="geometry" />
          </mxCell>
        </UserObject>
        <UserObject label="" lucidchartObjectId="PwQ1X-K6Gcos" id="EIwYczdbZNzWheQOIDnx-23">
          <mxCell style="html=1;jettySize=18;whiteSpace=wrap;fontSize=13;strokeColor=#5E5E5E;strokeWidth=1.5;rounded=1;arcSize=12;edgeStyle=orthogonalEdgeStyle;startArrow=none;;endArrow=block;endFill=1;;exitX=0.5;exitY=1.019;exitPerimeter=0;entryX=0.5;entryY=-0.012;entryPerimeter=0;" parent="EIwYczdbZNzWheQOIDnx-1" source="EIwYczdbZNzWheQOIDnx-15" target="EIwYczdbZNzWheQOIDnx-21" edge="1">
            <mxGeometry width="100" height="100" relative="1" as="geometry">
              <Array as="points">
                <mxPoint x="1005" y="190" />
                <mxPoint x="285" y="190" />
              </Array>
            </mxGeometry>
          </mxCell>
        </UserObject>
        <UserObject label="" lucidchartObjectId="VwQ1Up.NG_lP" id="EIwYczdbZNzWheQOIDnx-24">
          <mxCell style="html=1;jettySize=18;whiteSpace=wrap;fontSize=13;strokeColor=#5E5E5E;strokeWidth=1.5;rounded=1;arcSize=12;edgeStyle=orthogonalEdgeStyle;startArrow=none;;endArrow=block;endFill=1;;exitX=0.5;exitY=0.929;exitPerimeter=0;entryX=0.5;entryY=-0.012;entryPerimeter=0;" parent="EIwYczdbZNzWheQOIDnx-1" source="EIwYczdbZNzWheQOIDnx-21" target="EIwYczdbZNzWheQOIDnx-16" edge="1">
            <mxGeometry width="100" height="100" relative="1" as="geometry">
              <Array as="points">
                <mxPoint x="285" y="370" />
                <mxPoint x="285" y="370" />
              </Array>
            </mxGeometry>
          </mxCell>
        </UserObject>
        <UserObject label="" lucidchartObjectId="XwQ1z5ZxBu1p" id="EIwYczdbZNzWheQOIDnx-25">
          <mxCell style="html=1;jettySize=18;whiteSpace=wrap;fontSize=13;strokeColor=#5E5E5E;strokeWidth=1.5;rounded=1;arcSize=12;edgeStyle=orthogonalEdgeStyle;startArrow=none;;endArrow=block;endFill=1;;exitX=1.009;exitY=0.5;exitPerimeter=0;entryX=-0.009;entryY=0.5;entryPerimeter=0;" parent="EIwYczdbZNzWheQOIDnx-1" source="EIwYczdbZNzWheQOIDnx-16" target="EIwYczdbZNzWheQOIDnx-17" edge="1">
            <mxGeometry width="100" height="100" relative="1" as="geometry">
              <Array as="points" />
            </mxGeometry>
          </mxCell>
        </UserObject>
        <UserObject label="" lucidchartObjectId="ZwQ14WL~HceT" id="EIwYczdbZNzWheQOIDnx-26">
          <mxCell style="html=1;jettySize=18;whiteSpace=wrap;fontSize=13;strokeColor=#5E5E5E;strokeWidth=1.5;rounded=1;arcSize=12;edgeStyle=orthogonalEdgeStyle;startArrow=none;;endArrow=block;endFill=1;;exitX=1.009;exitY=0.5;exitPerimeter=0;entryX=-0.009;entryY=0.5;entryPerimeter=0;" parent="EIwYczdbZNzWheQOIDnx-1" source="EIwYczdbZNzWheQOIDnx-17" target="EIwYczdbZNzWheQOIDnx-18" edge="1">
            <mxGeometry width="100" height="100" relative="1" as="geometry">
              <Array as="points" />
            </mxGeometry>
          </mxCell>
        </UserObject>
        <UserObject label="" lucidchartObjectId="1wQ1nJ~LlQbt" id="EIwYczdbZNzWheQOIDnx-27">
          <mxCell style="html=1;jettySize=18;whiteSpace=wrap;fontSize=13;strokeColor=#5E5E5E;strokeWidth=1.5;rounded=1;arcSize=12;edgeStyle=orthogonalEdgeStyle;startArrow=none;;endArrow=block;endFill=1;;exitX=1.009;exitY=0.5;exitPerimeter=0;entryX=-0.009;entryY=0.5;entryPerimeter=0;" parent="EIwYczdbZNzWheQOIDnx-1" source="EIwYczdbZNzWheQOIDnx-18" target="EIwYczdbZNzWheQOIDnx-19" edge="1">
            <mxGeometry width="100" height="100" relative="1" as="geometry">
              <Array as="points" />
            </mxGeometry>
          </mxCell>
        </UserObject>
        <UserObject label="" lucidchartObjectId="4wQ1q8n~O3Wq" id="EIwYczdbZNzWheQOIDnx-28">
          <mxCell style="html=1;jettySize=18;whiteSpace=wrap;fontSize=13;strokeColor=#5E5E5E;strokeWidth=1.5;rounded=1;arcSize=12;edgeStyle=orthogonalEdgeStyle;startArrow=none;;endArrow=block;endFill=1;;exitX=1.009;exitY=0.5;exitPerimeter=0;entryX=-0.008;entryY=0.5;entryPerimeter=0;" parent="EIwYczdbZNzWheQOIDnx-1" source="EIwYczdbZNzWheQOIDnx-19" target="EIwYczdbZNzWheQOIDnx-20" edge="1">
            <mxGeometry width="100" height="100" relative="1" as="geometry">
              <Array as="points" />
            </mxGeometry>
          </mxCell>
        </UserObject>
        <UserObject label="" lucidchartObjectId="8wQ1-heI-BT." id="EIwYczdbZNzWheQOIDnx-29">
          <mxCell style="html=1;jettySize=18;whiteSpace=wrap;fontSize=13;strokeColor=#5E5E5E;strokeWidth=1.5;rounded=1;arcSize=12;edgeStyle=orthogonalEdgeStyle;startArrow=none;;endArrow=block;endFill=1;;exitX=1.008;exitY=0.5;exitPerimeter=0;entryX=0.5;entryY=-0.011;entryPerimeter=0;" parent="EIwYczdbZNzWheQOIDnx-1" source="EIwYczdbZNzWheQOIDnx-20" target="EIwYczdbZNzWheQOIDnx-22" edge="1">
            <mxGeometry width="100" height="100" relative="1" as="geometry">
              <Array as="points">
                <mxPoint x="1096" y="435" />
                <mxPoint x="1096" y="495" />
                <mxPoint x="285" y="495" />
              </Array>
            </mxGeometry>
          </mxCell>
        </UserObject>
        <UserObject label="Gate 5" lucidchartObjectId="ryQ1ws8z3aUN" id="EIwYczdbZNzWheQOIDnx-30">
          <mxCell style="html=1;overflow=block;blockSpacing=1;whiteSpace=wrap;ellipse;whiteSpace=wrap;fontSize=16.7;fontColor=#333333;fontStyle=1;spacing=3.8;strokeColor=#5e5e5e;strokeOpacity=100;rounded=1;absoluteArcSize=1;arcSize=9;strokeWidth=2.3;" parent="EIwYczdbZNzWheQOIDnx-1" vertex="1">
            <mxGeometry x="1125" y="555" width="60" height="60" as="geometry" />
          </mxCell>
        </UserObject>
        <UserObject label="" lucidchartObjectId="vyQ1xaU1PrZZ" id="EIwYczdbZNzWheQOIDnx-31">
          <mxCell style="html=1;jettySize=18;whiteSpace=wrap;fontSize=13;strokeColor=#5E5E5E;strokeWidth=1.5;rounded=1;arcSize=12;edgeStyle=orthogonalEdgeStyle;startArrow=none;;endArrow=block;endFill=1;;exitX=1.009;exitY=0.5;exitPerimeter=0;entryX=-0.019;entryY=0.5;entryPerimeter=0;" parent="EIwYczdbZNzWheQOIDnx-1" source="EIwYczdbZNzWheQOIDnx-22" target="EIwYczdbZNzWheQOIDnx-30" edge="1">
            <mxGeometry width="100" height="100" relative="1" as="geometry">
              <Array as="points" />
            </mxGeometry>
          </mxCell>
        </UserObject>
        <UserObject label="Lessons Learned" lucidchartObjectId="OyQ1zNsYMQaP" id="EIwYczdbZNzWheQOIDnx-32">
          <mxCell style="html=1;overflow=block;blockSpacing=1;whiteSpace=wrap;;whiteSpace=wrap;fontSize=16.7;fontColor=#333333;spacing=9;strokeColor=#5e5e5e;strokeOpacity=100;rounded=1;absoluteArcSize=1;arcSize=9;strokeWidth=2.3;" parent="EIwYczdbZNzWheQOIDnx-1" vertex="1">
            <mxGeometry x="225" y="690" width="120" height="90" as="geometry" />
          </mxCell>
        </UserObject>
        <UserObject label="Gate 6" lucidchartObjectId="1yQ1Z0b82CH." id="EIwYczdbZNzWheQOIDnx-33">
          <mxCell style="html=1;overflow=block;blockSpacing=1;whiteSpace=wrap;ellipse;whiteSpace=wrap;fontSize=16.7;fontColor=#333333;fontStyle=1;spacing=3.8;strokeColor=#5e5e5e;strokeOpacity=100;rounded=1;absoluteArcSize=1;arcSize=9;strokeWidth=2.3;" parent="EIwYczdbZNzWheQOIDnx-1" vertex="1">
            <mxGeometry x="1125" y="705" width="60" height="60" as="geometry" />
          </mxCell>
        </UserObject>
        <UserObject label="" lucidchartObjectId="czQ1QO8wu0Of" id="EIwYczdbZNzWheQOIDnx-34">
          <mxCell style="html=1;jettySize=18;whiteSpace=wrap;fontSize=13;strokeColor=#5E5E5E;strokeWidth=1.5;rounded=1;arcSize=12;edgeStyle=orthogonalEdgeStyle;startArrow=none;;endArrow=block;endFill=1;;exitX=1.009;exitY=0.5;exitPerimeter=0;entryX=-0.019;entryY=0.5;entryPerimeter=0;" parent="EIwYczdbZNzWheQOIDnx-1" source="EIwYczdbZNzWheQOIDnx-32" target="EIwYczdbZNzWheQOIDnx-33" edge="1">
            <mxGeometry width="100" height="100" relative="1" as="geometry">
              <Array as="points" />
            </mxGeometry>
          </mxCell>
        </UserObject>
        <UserObject label="" lucidchartObjectId="nzQ13EkccB8m" id="EIwYczdbZNzWheQOIDnx-35">
          <mxCell style="html=1;jettySize=18;whiteSpace=wrap;fontSize=13;strokeColor=#5E5E5E;strokeWidth=1.5;rounded=1;arcSize=12;edgeStyle=orthogonalEdgeStyle;startArrow=none;;endArrow=block;endFill=1;;exitX=0.5;exitY=1.019;exitPerimeter=0;entryX=0.5;entryY=-0.012;entryPerimeter=0;" parent="EIwYczdbZNzWheQOIDnx-1" source="EIwYczdbZNzWheQOIDnx-30" target="EIwYczdbZNzWheQOIDnx-32" edge="1">
            <mxGeometry width="100" height="100" relative="1" as="geometry">
              <Array as="points">
                <mxPoint x="1155" y="640" />
                <mxPoint x="285" y="640" />
              </Array>
            </mxGeometry>
          </mxCell>
        </UserObject>
        <UserObject label="Project Complete" lucidchartObjectId="CzQ1PTJ0YxEH" id="EIwYczdbZNzWheQOIDnx-36">
          <mxCell style="html=1;overflow=block;blockSpacing=1;whiteSpace=wrap;rounded=1;arcSize=50;whiteSpace=wrap;fontSize=16.7;fontColor=#333333;spacing=3.8;strokeColor=#5e5e5e;strokeOpacity=100;strokeWidth=2.3;" parent="EIwYczdbZNzWheQOIDnx-1" vertex="1">
            <mxGeometry x="660" y="855" width="120" height="60" as="geometry" />
          </mxCell>
        </UserObject>
        <UserObject label="" lucidchartObjectId="LzQ1Lm1DvNuf" id="EIwYczdbZNzWheQOIDnx-37">
          <mxCell style="html=1;jettySize=18;whiteSpace=wrap;fontSize=13;strokeColor=#5E5E5E;strokeWidth=1.5;rounded=1;arcSize=12;edgeStyle=orthogonalEdgeStyle;startArrow=none;;endArrow=block;endFill=1;;exitX=0.5;exitY=1.019;exitPerimeter=0;entryX=0.5;entryY=-0.019;entryPerimeter=0;" parent="EIwYczdbZNzWheQOIDnx-1" source="EIwYczdbZNzWheQOIDnx-33" target="EIwYczdbZNzWheQOIDnx-36" edge="1">
            <mxGeometry width="100" height="100" relative="1" as="geometry">
              <Array as="points">
                <mxPoint x="1155" y="790" />
                <mxPoint x="720" y="790" />
              </Array>
            </mxGeometry>
          </mxCell>
        </UserObject>
      </root>
    </mxGraphModel>
  </diagram>
</mxfile>
